<?xml version="1.0" encoding="UTF-8" standalone="no"?>
<svg
   xmlns:dc="http://purl.org/dc/elements/1.1/"
   xmlns:cc="http://creativecommons.org/ns#"
   xmlns:rdf="http://www.w3.org/1999/02/22-rdf-syntax-ns#"
   xmlns:svg="http://www.w3.org/2000/svg"
   xmlns="http://www.w3.org/2000/svg"
   xmlns:sodipodi="http://sodipodi.sourceforge.net/DTD/sodipodi-0.dtd"
   xmlns:inkscape="http://www.inkscape.org/namespaces/inkscape"
   width="512"
   height="512"
   viewBox="0 0 512 512"
   version="1.1"
   id="svg8"
   inkscape:version="1.0.1 (3bc2e813f5, 2020-09-07)"
   sodipodi:docname="rudder.svg">
  <defs
     id="defs2" />
  <sodipodi:namedview
     id="base"
     pagecolor="#aa7dff"
     bordercolor="#666666"
     borderopacity="1.0"
     inkscape:pageopacity="0"
     inkscape:pageshadow="2"
     inkscape:zoom="1.1268293"
     inkscape:cx="245.25213"
     inkscape:cy="213.62706"
     inkscape:document-units="px"
     inkscape:current-layer="layer5"
     showgrid="false"
     units="px"
     inkscape:pagecheckerboard="false"
     inkscape:window-width="1705"
     inkscape:window-height="1368"
     inkscape:window-x="-7"
     inkscape:window-y="0"
     inkscape:window-maximized="0"
     inkscape:document-rotation="0" />
  <metadata
     id="metadata5">
    <rdf:RDF>
      <cc:Work
         rdf:about="">
        <dc:format>image/svg+xml</dc:format>
        <dc:type
           rdf:resource="http://purl.org/dc/dcmitype/StillImage" />
        <dc:title></dc:title>
        <dc:creator>
          <cc:Agent>
            <dc:title>Severi Vidnäs</dc:title>
          </cc:Agent>
        </dc:creator>
        <dc:rights>
          <cc:Agent>
            <dc:title>All Rights Reserved</dc:title>
          </cc:Agent>
        </dc:rights>
      </cc:Work>
    </rdf:RDF>
  </metadata>
  <g
     inkscape:label="Wheel"
     inkscape:groupmode="layer"
     id="layer1"
     transform="translate(0,-26.06665)"
     style="display:inline">
    <ellipse
       style="display:inline;fill:none;stroke:#cccccc;stroke-width:32;stroke-linecap:square;stroke-linejoin:round;stroke-miterlimit:0;stroke-dasharray:none;stroke-opacity:1"
       id="path830"
       cx="256.00003"
       cy="282.06665"
       rx="169.17636"
       ry="169.17633" />
  </g>
  <g
     inkscape:groupmode="layer"
     id="layer2"
     inkscape:label="Knob">
    <path
       id="rect833"
       style="fill:#e6e6e6;fill-opacity:1;stroke:none;stroke-width:33.1585;stroke-linecap:square;stroke-linejoin:round;stroke-miterlimit:0;stroke-dasharray:none;stroke-opacity:1"
       d="M 247.28575,2.2728432 C 249.31037,0.38722515 255.87546,0 255.87546,0 c 0,0 6.56509,0.38722515 8.5897,2.2728432 9.05654,8.4347738 3.48513,37.1694058 1.22099,52.3853588 -1.13206,7.607977 5.6585,1.121998 4.24341,8.984024 -1.41509,7.862027 1.03558,7.929203 1.03558,7.929203 l 0.78593,31.605131 c 0,0 -5.72902,2.21864 -5.74215,5.31223 -0.0131,3.07653 4.66958,2.8783 5.64629,5.8173 0.80269,2.41536 -0.048,11.62569 -0.048,11.62569 l -0.0479,7.58507 c 0,0 -4.33186,4.51053 -5.27269,7.313 -6.15109,18.32239 4.13068,7.11493 5.21308,31.32687 C 272.58213,196.36866 264.46516,256 264.46516,256 h -17.17941 c 0,0 -8.11695,-59.63134 -7.03456,-83.84328 1.0824,-24.21194 11.36418,-13.00448 5.21308,-31.32687 -0.94083,-2.80247 -5.27269,-7.313 -5.27269,-7.313 l -0.0479,-7.58507 -0.0478,-11.62569 c 0,0 5.65934,-2.74077 5.64628,-5.8173 C 245.72906,105.3952 240,103.17656 240,103.17656 l 0.78584,-31.605131 c 0,0 2.45067,-0.06718 1.03559,-7.929203 -1.41508,-7.862027 5.37547,-1.376048 4.24341,-8.984024 -2.26413,-15.215953 -7.83554,-43.950585 1.22098,-52.3853588 z"
       sodipodi:nodetypes="cccssccssccssccsscccsccsscc" />
    <path
       id="rect833-1"
       style="fill:#e6e6e6;fill-opacity:1;stroke:none;stroke-width:33.1585;stroke-linecap:square;stroke-linejoin:round;stroke-miterlimit:0;stroke-dasharray:none;stroke-opacity:1"
       d="m 509.72716,247.28575 c 1.88562,2.02462 2.27284,8.58971 2.27284,8.58971 0,0 -0.38722,6.56509 -2.27284,8.5897 -8.43477,9.05654 -37.1694,3.48513 -52.38536,1.22099 -7.60797,-1.13206 -1.122,5.6585 -8.98402,4.24341 -7.86203,-1.41509 -7.9292,1.03558 -7.9292,1.03558 l -31.60514,0.78593 c 0,0 -2.21864,-5.72902 -5.31223,-5.74215 -3.07653,-0.0131 -2.8783,4.66958 -5.8173,5.64629 -2.41536,0.80269 -11.62569,-0.048 -11.62569,-0.048 l -7.58507,-0.0479 c 0,0 -4.51053,-4.33186 -7.313,-5.27269 -18.32239,-6.15109 -7.11493,4.13068 -31.32687,5.21308 C 315.63134,272.58213 256,264.46516 256,264.46516 v -17.17941 c 0,0 59.63134,-8.11695 83.84328,-7.03456 24.21194,1.0824 13.00448,11.36418 31.32687,5.21308 2.80247,-0.94083 7.313,-5.27269 7.313,-5.27269 l 7.58507,-0.0479 11.62569,-0.0478 c 0,0 2.74077,5.65934 5.8173,5.64628 C 406.6048,245.72906 408.82344,240 408.82344,240 l 31.60514,0.78584 c 0,0 0.0672,2.45067 7.9292,1.03559 7.86203,-1.41508 1.37605,5.37547 8.98402,4.24341 15.21596,-2.26413 43.95059,-7.83554 52.38536,1.22098 z"
       sodipodi:nodetypes="cccssccssccssccsscccsccsscc" />
    <path
       id="rect833-1-9"
       style="fill:#e6e6e6;fill-opacity:1;stroke:none;stroke-width:33.1585;stroke-linecap:square;stroke-linejoin:round;stroke-miterlimit:0;stroke-dasharray:none;stroke-opacity:1"
       d="M 264.71418,509.72716 C 262.68956,511.61278 256.12447,512 256.12447,512 c 0,0 -6.56509,-0.38722 -8.5897,-2.27284 -9.05654,-8.43477 -3.48513,-37.1694 -1.22099,-52.38536 1.13206,-7.60797 -5.6585,-1.122 -4.24341,-8.98402 1.41509,-7.86203 -1.03558,-7.9292 -1.03558,-7.9292 l -0.78593,-31.60514 c 0,0 5.72902,-2.21864 5.74215,-5.31223 0.0131,-3.07653 -4.66958,-2.8783 -5.64629,-5.8173 -0.80269,-2.41536 0.048,-11.62569 0.048,-11.62569 l 0.0479,-7.58507 c 0,0 4.33186,-4.51053 5.27269,-7.313 6.15109,-18.32239 -4.13068,-7.11493 -5.21308,-31.32687 C 239.4178,315.63134 247.53477,256 247.53477,256 h 17.17941 c 0,0 8.11695,59.63134 7.03456,83.84328 -1.0824,24.21194 -11.36418,13.00448 -5.21308,31.32687 0.94083,2.80247 5.27269,7.313 5.27269,7.313 l 0.0479,7.58507 0.0478,11.62569 c 0,0 -5.65934,2.74077 -5.64628,5.8173 0.0131,3.09359 5.74216,5.31223 5.74216,5.31223 l -0.78584,31.60514 c 0,0 -2.45067,0.0672 -1.03559,7.9292 1.41508,7.86203 -5.37547,1.37605 -4.24341,8.98402 2.26413,15.21596 7.83554,43.95059 -1.22098,52.38536 z"
       sodipodi:nodetypes="cccssccssccssccsscccsccsscc" />
    <path
       id="rect833-1-8"
       style="fill:#e6e6e6;fill-opacity:1;stroke:none;stroke-width:33.1585;stroke-linecap:square;stroke-linejoin:round;stroke-miterlimit:0;stroke-dasharray:none;stroke-opacity:1"
       d="M 2.27284,264.71418 C 0.38722,262.68956 0,256.12447 0,256.12447 c 0,0 0.38722,-6.56509 2.27284,-8.5897 8.43477,-9.05654 37.1694,-3.48513 52.38536,-1.22099 7.60797,1.13206 1.122,-5.6585 8.98402,-4.24341 7.86203,1.41509 7.9292,-1.03558 7.9292,-1.03558 l 31.60514,-0.78593 c 0,0 2.21864,5.72902 5.31223,5.74215 3.07653,0.0131 2.8783,-4.66958 5.8173,-5.64629 2.41536,-0.80269 11.62569,0.048 11.62569,0.048 l 7.58507,0.0479 c 0,0 4.51053,4.33186 7.313,5.27269 18.32239,6.15109 7.11493,-4.13068 31.32687,-5.21308 C 196.36866,239.4178 256,247.53477 256,247.53477 v 17.17941 c 0,0 -59.63134,8.11695 -83.84328,7.03456 -24.21194,-1.0824 -13.00448,-11.36418 -31.32687,-5.21308 -2.80247,0.94083 -7.313,5.27269 -7.313,5.27269 l -7.58507,0.0479 -11.62569,0.0478 c 0,0 -2.74077,-5.65934 -5.8173,-5.64628 -3.09359,0.0131 -5.31223,5.74216 -5.31223,5.74216 l -31.60514,-0.78584 c 0,0 -0.0672,-2.45067 -7.9292,-1.03559 -7.86203,1.41508 -1.37605,-5.37547 -8.98402,-4.24341 -15.21596,2.26413 -43.95059,7.83554 -52.38536,-1.22098 z"
       sodipodi:nodetypes="cccssccssccssccsscccsccsscc" />
    <path
       id="rect833-14"
       style="fill:#e6e6e6;fill-opacity:1;stroke:none;stroke-width:33.1585;stroke-linecap:square;stroke-linejoin:round;stroke-miterlimit:0;stroke-dasharray:none;stroke-opacity:1"
       d="m 429.25029,70.425901 c 2.76495,0.09829 7.68098,4.4667 7.68098,4.4667 0,0 4.36841,4.916029 4.4667,7.680978 0.43965,12.368226 -23.81838,28.747101 -36.17868,37.905411 -6.18014,4.57917 3.20779,4.79454 -3.35212,9.35321 -6.55991,4.55867 -4.87452,6.33906 -4.87452,6.33906 l -21.79247,22.90394 c 0,0 -5.61985,-2.48222 -7.81663,-0.304 -2.1847,2.16617 1.26663,5.33716 -0.12092,8.10598 -1.14033,2.27551 -8.25455,8.18666 -8.25455,8.18666 l -5.39732,5.32959 c 0,0 -6.25251,0.12634 -8.89943,1.44271 -17.30536,8.60641 -2.11018,7.95185 -18.46524,25.83765 -16.35503,17.88582 -64.26032,54.31198 -64.26032,54.31198 l -12.14768,-12.14768 c 0,0 36.42618,-47.90527 54.31197,-64.26033 17.8858,-16.35506 17.23125,-1.15987 25.83765,-18.46524 1.31638,-2.64691 1.44271,-8.89943 1.44271,-8.89943 l 5.32959,-5.39732 8.1868,-8.25441 c 0,0 5.93978,2.06374 8.10598,-0.12093 2.17823,-2.19676 -0.30401,-7.81663 -0.30401,-7.81663 l 22.90388,-21.79253 c 0,0 1.78039,1.68538 6.33906,-4.87452 4.55868,-6.5599 4.77405,2.82802 9.35321,-3.35212 9.15832,-12.360285 25.53719,-36.61832 37.90541,-36.178679 z"
       sodipodi:nodetypes="cccssccssccssccsscccsccsscc" />
    <path
       id="rect833-1-4"
       style="fill:#e6e6e6;fill-opacity:1;stroke:none;stroke-width:33.1585;stroke-linecap:square;stroke-linejoin:round;stroke-miterlimit:0;stroke-dasharray:none;stroke-opacity:1"
       d="m 441.5741,429.25029 c -0.0983,2.76496 -4.4667,7.68098 -4.4667,7.68098 0,0 -4.91603,4.36842 -7.68098,4.4667 -12.36822,0.43966 -28.74709,-23.81838 -37.90541,-36.17868 -4.57916,-6.18013 -4.79454,3.20779 -9.35321,-3.35211 -4.55867,-6.55992 -6.33905,-4.87453 -6.33905,-4.87453 L 352.9248,375.20018 c 0,0 2.48222,-5.61985 0.304,-7.81663 -2.16617,-2.1847 -5.33716,1.26663 -8.10598,-0.12092 -2.27551,-1.14033 -8.18666,-8.25455 -8.18666,-8.25455 l -5.32959,-5.39732 c 0,0 -0.12634,-6.25251 -1.44271,-8.89943 -8.60641,-17.30536 -7.95185,-2.11018 -25.83765,-18.46524 -17.88582,-16.35503 -54.31198,-64.26032 -54.31198,-64.26032 l 12.14768,-12.14768 c 0,0 47.90527,36.42618 64.26033,54.31197 16.35506,17.8858 1.15987,17.23125 18.46524,25.83765 2.64691,1.31638 8.89943,1.44271 8.89943,1.44271 l 5.39732,5.32959 8.25441,8.1868 c 0,0 -2.06374,5.93978 0.12093,8.10598 2.19676,2.17823 7.81663,-0.30401 7.81663,-0.30401 l 21.79254,22.90388 c 0,0 -1.68537,1.78041 4.87451,6.33907 6.55991,4.55868 -2.82801,4.77404 3.35212,9.3532 12.36029,9.15833 36.61832,25.5372 36.17868,37.90541 z"
       sodipodi:nodetypes="cccssccssccssccsscccsccsscc" />
    <path
       id="rect833-1-9-3"
       style="fill:#e6e6e6;fill-opacity:1;stroke:none;stroke-width:33.1585;stroke-linecap:square;stroke-linejoin:round;stroke-miterlimit:0;stroke-dasharray:none;stroke-opacity:1"
       d="m 82.74966,441.57405 c -2.764957,-0.0983 -7.680982,-4.4667 -7.680982,-4.4667 0,0 -4.368414,-4.91603 -4.466695,-7.68098 -0.439658,-12.36822 23.818376,-28.74709 36.178677,-37.90541 6.18013,-4.57916 -3.20779,-4.79454 3.35211,-9.35321 6.55992,-4.55867 4.87453,-6.33905 4.87453,-6.33905 l 21.79247,-22.90395 c 0,0 5.61985,2.48222 7.81663,0.304 2.1847,-2.16617 -1.26663,-5.33715 0.12092,-8.10598 1.14033,-2.27551 8.25455,-8.18666 8.25455,-8.18666 l 5.39732,-5.32959 c 0,0 6.25251,-0.12634 8.89943,-1.44271 17.30536,-8.60641 2.11018,-7.95185 18.46524,-25.83765 16.35503,-17.88582 64.26032,-54.31198 64.26032,-54.31198 l 12.14768,12.14768 c 0,0 -36.42618,47.90527 -54.31197,64.26033 -17.8858,16.35506 -17.23125,1.15987 -25.83765,18.46524 -1.31638,2.64691 -1.44271,8.89943 -1.44271,8.89943 l -5.32959,5.39732 -8.1868,8.25441 c 0,0 -5.93978,-2.06374 -8.10598,0.12093 -2.17823,2.19676 0.30401,7.81663 0.30401,7.81663 l -22.90388,21.79254 c 0,0 -1.78041,-1.68537 -6.33907,4.87451 -4.55868,6.55991 -4.77404,-2.82801 -9.3532,3.35212 -9.15833,12.36029 -25.537199,36.61833 -37.905409,36.17868 z"
       sodipodi:nodetypes="cccssccssccssccsscccsccsscc" />
    <path
       id="rect833-1-8-2"
       style="fill:#e6e6e6;fill-opacity:1;stroke:none;stroke-width:33.1585;stroke-linecap:square;stroke-linejoin:round;stroke-miterlimit:0;stroke-dasharray:none;stroke-opacity:1"
       d="m 70.425949,82.74966 c 0.09829,-2.764957 4.466701,-7.680982 4.466701,-7.680982 0,0 4.916026,-4.368414 7.680976,-4.466695 12.368224,-0.439658 28.747094,23.818376 37.905414,36.178677 4.57916,6.18013 4.79454,-3.20779 9.35321,3.35211 4.55867,6.55992 6.33905,4.87453 6.33905,4.87453 l 22.90395,21.79247 c 0,0 -2.48222,5.61985 -0.304,7.81663 2.16617,2.1847 5.33715,-1.26663 8.10598,0.12092 2.27551,1.14033 8.18666,8.25455 8.18666,8.25455 l 5.32959,5.39732 c 0,0 0.12634,6.25251 1.44271,8.89943 8.60641,17.30536 7.95185,2.11018 25.83765,18.46524 17.88582,16.35503 54.31198,64.26032 54.31198,64.26032 l -12.14768,12.14768 c 0,0 -47.90527,-36.42618 -64.26033,-54.31197 -16.35506,-17.8858 -1.15987,-17.23125 -18.46524,-25.83765 -2.64691,-1.31638 -8.89943,-1.44271 -8.89943,-1.44271 l -5.39732,-5.32959 -8.25441,-8.1868 c 0,0 2.06374,-5.93978 -0.12093,-8.10598 -2.19676,-2.17823 -7.81663,0.30401 -7.81663,0.30401 l -21.79254,-22.90388 c 0,0 1.68537,-1.78041 -4.87451,-6.33907 -6.55991,-4.55868 2.82801,-4.77404 -3.35212,-9.3532 C 94.244388,111.49669 69.986355,95.117821 70.425998,82.749611 Z"
       sodipodi:nodetypes="cccssccssccssccsscccsccsscc" />
  </g>
  <g
     inkscape:groupmode="layer"
     id="layer3"
     inkscape:label="MidSection">
    <circle
       style="opacity:1;fill:#ececec;fill-opacity:1;stroke:none;stroke-width:48.2721;stroke-linecap:square;stroke-linejoin:round;stroke-miterlimit:0;stroke-dasharray:none;stroke-opacity:1"
       id="path839"
       cx="256"
       cy="256"
       r="64" />
  </g>
  <g
     inkscape:groupmode="layer"
     id="layer5"
     inkscape:label="markers">
    <rect
       style="fill:#800000;fill-opacity:1;stroke:none;stroke-width:32;stroke-linecap:square;stroke-linejoin:round;stroke-miterlimit:0;stroke-dasharray:none;stroke-opacity:1"
       id="rect928"
       width="4"
       height="32"
       x="254"
       y="0" />
  </g>
</svg>
